<svg xmlns="http://www.w3.org/2000/svg" xmlns:xlink="http://www.w3.org/1999/xlink" xmlns:lucid="lucid" width="1520" height="700"><g transform="translate(-60 -140)" lucid:page-tab-id="0_0"><path d="M0 0h1870.4v1323.2H0z" fill="#fff"/><path d="M460 660h80v80h-80v-80z" stroke="#fff" stroke-opacity="0" fill="#d6242d"/><path d="M503.1 719.6h-27.8c-.6 0-1.1-.47-1.1-1.07 0-.2.04-.35.16-.5L488 693.67c.17-.35.5-.56.86-.56.4 0 .72.16.93.48l3.82 5.88c.2.32.24.7.06 1.06l-5.54 10.65H500c.43 0 .8.23.96.6l3.1 6.4c.17.35.14.72-.07 1.07-.25.26-.55.37-.9.34zm-26.04-2.13h24.32l-2.06-4.27h-12.95c-.4 0-.72-.2-.92-.5-.18-.35-.18-.74 0-1.06l6.08-11.63-2.55-3.73zM513.8 719.62h-6.7c-.4 0-.75-.2-.94-.57l-15.44-28c-.17-.28-.17-.64 0-.93l2.5-5.57c.17-.4.5-.6.9-.65.4-.03.77.18 1 .54l19.6 33.6c.3.55.13 1.2-.38 1.48-.17.1-.34.14-.53.14zm-6.1-2.14H512l-17.67-30.25-1.47 3.25zM524.72 719.6h-6.9c-.4 0-.74-.2-.95-.54L495.62 682c-.2-.35-.2-.74 0-1.06.18-.35.52-.55.9-.55h6.56c.4 0 .73.2.94.5l21.6 37.1c.32.5.14 1.17-.38 1.45-.15.12-.33.16-.52.16zm-6.3-2.1h4.43l-20.38-35h-4.06z" stroke="#fff" stroke-opacity="0" fill="#fff"/><use xlink:href="#a" transform="matrix(1,0,0,1,430,749) translate(11.149999999999991 14.4)"/><use xlink:href="#b" transform="matrix(1,0,0,1,430,749) translate(57.04999999999999 14.4)"/><use xlink:href="#c" transform="matrix(1,0,0,1,430,749) translate(31.525 36)"/><use xlink:href="#d" transform="matrix(1,0,0,1,430,749) translate(83.475 36)"/><use xlink:href="#e" transform="matrix(1,0,0,1,430,749) translate(19.525 57.6)"/><use xlink:href="#f" transform="matrix(1,0,0,1,430,749) translate(90.475 57.6)"/><path d="M102.44 531.78H81.7c-.95 0-1.7-.76-1.7-1.7v-2.54c0-9.48 6.23-17.44 15.5-19.67.4-.1.8-.04 1.2.17 2.73 1.46 5.68 1.46 8.4 0 .4-.2.8-.26 1.22-.17 2.43.6 4.43 1.47 6.5 2.85l-1.9 2.83c-1.55-1-3-1.68-4.8-2.15-3.45 1.58-7 1.58-10.43 0-7.4 2.06-12.3 8.5-12.3 16.14v.84h19.04z" stroke="#fff" stroke-opacity="0" fill="#232f3e"/><path d="M100.88 512.46c-6.17 0-11.17-5-11.17-11.14 0-6.16 5-11.15 11.18-11.15 6.16-.07 11.2 4.88 11.26 11 .04 4.27-2.1 7.9-5.86 9.9-1.72.97-3.4 1.4-5.4 1.4zm0-18.9c-4.3 0-7.83 3.45-7.85 7.76 0 2.92 1.48 5.4 4.06 6.8 2.43 1.3 5.12 1.3 7.57 0 2.6-1.4 4.1-3.95 4.06-6.9-.05-4.27-3.57-7.68-7.85-7.64zM158.32 531.78h-20.75v-3.4h19.04v-.83c0-7.67-4.9-14.1-12.25-16.17-3.45 1.6-7 1.6-10.46 0-1.82.5-3.3 1.2-4.84 2.28l-1.94-2.8c2.07-1.44 4.08-2.35 6.5-2.97.44-.1.86-.06 1.26.16 2.7 1.46 5.7 1.46 8.42 0 .4-.22.8-.27 1.2-.17 9.25 2.22 15.5 10.16 15.5 19.65v2.53c0 .94-.76 1.68-1.68 1.7z" stroke="#fff" stroke-opacity="0" fill="#232f3e"/><path d="M139.08 512.46c-6.2 0-11.23-5.05-11.23-11.25s5.06-11.2 11.28-11.2c6.2 0 11.23 5.05 11.23 11.25 0 4.23-2.14 7.82-5.85 9.84-1.75.94-3.44 1.36-5.42 1.36zm0-18.9c-4.3 0-7.8 3.45-7.83 7.76-.02 2.92 1.46 5.42 4.05 6.8 2.43 1.3 5.13 1.3 7.6 0 2.62-1.4 4.13-3.97 4.08-6.96-.1-4.26-3.62-7.68-7.9-7.6zM147.2 570H92.73c-.92 0-1.67-.75-1.67-1.7v-3.6c-.06-13.1 8.6-24.1 21.32-27.18.46-.13.86-.06 1.27.13 4.04 2.18 8.5 2.18 12.6 0 .34-.2.75-.26 1.2-.13 12.78 3.06 21.45 14.06 21.4 27.18v3.6c0 .95-.76 1.7-1.68 1.7zm-52.72-3.38h50.97v-1.92c0-11.27-7.28-20.74-18.2-23.66-4.8 2.3-9.83 2.3-14.62 0-10.93 2.92-18.15 12.4-18.15 23.66z" stroke="#fff" stroke-opacity="0" fill="#232f3e"/><path d="M120.02 542.64c-2.7 0-5-.58-7.4-1.86-7.4-4.07-10.13-13.34-6.1-20.77 4.1-7.4 13.38-10.12 20.83-6.08 7.42 4.07 10.15 13.34 6.1 20.77-1.47 2.68-3.4 4.6-6.1 6.08-2.36 1.28-4.66 1.86-7.33 1.86zm0-26.76c-4.44-.06-8.28 2.17-10.42 6.1-3.07 5.64-.98 12.74 4.7 15.83 3.67 1.97 7.7 1.97 11.4 0 3.95-2.13 6.22-5.95 6.16-10.42-.1-6.42-5.4-11.6-11.84-11.5z" stroke="#fff" stroke-opacity="0" fill="#232f3e"/><path d="M158.78 531.78h-39.72c-.68 0-1.23-.54-1.23-1.23v-2.64c-.04-9.53 6.3-17.56 15.56-19.8.33-.1.63-.06.92.08 2.95 1.6 6.2 1.6 9.2 0 .25-.14.54-.2.88-.1 9.32 2.24 15.64 10.27 15.6 19.83v2.65c0 .7-.55 1.23-1.22 1.23zm-38.46-2.47h37.2v-1.4c0-8.2-5.32-15.1-13.3-17.25-3.5 1.7-7.16 1.7-10.66 0-7.97 2.14-13.24 9.05-13.24 17.26z" stroke="#fff" stroke-opacity="0" stroke-width=".73" fill="#fff" fill-opacity="0"/><path d="M120.94 531.78H81.22c-.67 0-1.22-.54-1.22-1.23v-2.64c-.04-9.53 6.28-17.56 15.56-19.8.34-.1.63-.06.93.08 2.94 1.6 6.2 1.6 9.18 0 .25-.14.55-.2.88-.1 9.32 2.24 15.65 10.27 15.6 19.83v2.65c0 .7-.54 1.23-1.22 1.23zM82.5 529.3h37.18v-1.4c0-8.2-5.3-15.1-13.28-17.25-3.5 1.7-7.17 1.7-10.67 0-7.97 2.14-13.24 9.05-13.24 17.26z" stroke="#fff" stroke-opacity="0" stroke-width=".73" fill="#fff" fill-opacity="0"/><use xlink:href="#g" transform="matrix(1,0,0,1,50,579) translate(46.55 14.4)"/><path d="M968.98 202.48l-7.98 3.66v64.36l7.98 3.65 19.54-35.83-19.54-35.84z" fill="#8c3123"/><path d="M1010.48 264.9l-41.52 9.24v-71.66l41.52 9.25 19.63 26.65-19.62 26.52z" fill="#e05243"/><path d="M1010.5 264.9l41.53 9.24 7.16-34.9-7.17-36.76-41.53 9.25v53.17z" fill="#8c3123"/><path d="M1052 202.48l8 3.66v64.36l-8 3.65v-71.67z" fill="#e05243"/><path d="M992.38 250.17l18.12 2.13 14.35-13.87-14.35-13.88-18.12 2.08v23.54z" fill="#8c3123"/><path d="M1028.6 215.25l-18.1 3.03-18.12-3.03 18.1-31.85 18.12 31.85z" fill="#5e1f18"/><path d="M1028.6 261.55l-18.1-3.08-18.12 3.08 18.1 31.84 18.12-31.85z" fill="#f2b0a9"/><path d="M1028.6 215.26l-18.1-4.1V183.4l18.1 8.3v23.56z" fill="#e05243"/><path d="M992.38 215.26l18.1-4.1V183.4l-18.1 8.3v23.56z" fill="#8c3123"/><path d="M1010.5 293.4l18.1-8.33v-23.54l-18.1 4.1v27.76z" fill="#e05243"/><path d="M1010.5 293.4l-18.12-8.33v-23.54l18.1 4.1v27.76z" fill="#8c3123"/><path d="M1028.6 250.17l-18.1 2.13v-27.75l18.1 2.08v23.54z" fill="#e05243"/><use xlink:href="#h" transform="matrix(1,0,0,1,961,293.3999999999999) translate(3.0249999999999986 14.4)"/><use xlink:href="#i" transform="matrix(1,0,0,1,961,293.3999999999999) translate(73.975 14.4)"/><use xlink:href="#j" transform="matrix(1,0,0,1,961,293.3999999999999) translate(19.549999999999997 36)"/><path d="M540 525l-19.44-.66-12.58.65 20.78 23.4L540 525z" fill="#fad791"/><path d="M540 515.32l-19.44.65-12.58-.65 20.78-23.4L540 515.3zM460 515.27l19.43.7 12.58-.67-20.77-23.28L460 515.27z" fill="#624a1e"/><path d="M460 525l19.43-.66L492 525l-20.77 23.42L460 525z" fill="#fad791"/><path d="M528.76 514.38l11.23.93v-18.73l-11.24-4.66v22.48z" fill="#d9a741"/><path d="M507.98 496.57l20.77-4.66v22.48l-20.77.93v-18.73z" fill="#876929"/><path d="M500 493.83l22.5 6.1v9.26l-22.5-3.3v-12.07z" fill="#d9a741"/><path d="M489.86 507.44l10.32-1.5 22.32 3.26-10 .9-22.64-2.66z" fill="#624a1e"/><path d="M471.23 514.36l-11.23.9v-18.8l11.23-4.57v22.46z" fill="#876929"/><path d="M492 496.55l-20.77-4.66v22.47l20.77.93v-18.75z" fill="#d9a741"/><path d="M500 493.83l-22.5 6.1v9.26l22.5-3.3v-12.07z" fill="#876929"/><path d="M510.13 507.44l-10.3-1.5-22.33 3.26 9.98.9 22.65-2.66z" fill="#624a1e"/><path d="M528.76 525.94L540 525v18.74l-11.24 4.66v-22.46z" fill="#d9a741"/><path d="M507.98 543.74l20.77 4.66v-22.46l-20.77-.94v18.74z" fill="#876929"/><path d="M500 546.47l22.5-6.1v-9.26l-22.5 3.3v12.07z" fill="#d9a741"/><path d="M489.86 532.87l10.32 1.5 22.32-3.26-10-.9-22.64 2.67z" fill="#fad791"/><path d="M471.23 525.94L460 525v18.73l11.23 4.7v-22.5z" fill="#876929"/><path d="M492 543.76l-20.77 4.66v-22.48L492 525v18.76z" fill="#d9a741"/><path d="M500 546.47l-22.5-6.1v-9.26l22.5 3.3v12.07z" fill="#876929"/><path d="M510.13 532.87l-10.3 1.5-22.33-3.26 9.98-.9 22.65 2.67z" fill="#fad791"/><path d="M488.03 555.04L500 560l6.62-2.72 5.34-72.32L500 480l-11.97 4.96v70.08z" fill="#876929"/><path d="M511.96 555.04L500 560v-80l11.96 4.96v70.08z" fill="#d9a741"/><use xlink:href="#k" transform="matrix(1,0,0,1,460,560) translate(7.024999999999999 14.4)"/><use xlink:href="#l" transform="matrix(1,0,0,1,460,560) translate(25.5 36)"/><use xlink:href="#m" transform="matrix(1,0,0,1,460,560) translate(4.524999999999999 57.6)"/><path d="M178.5 530h263" stroke="#000" stroke-width="2" fill="none"/><path d="M163.24 530l14.26-4.64v9.28zM456.76 530l-14.26 4.64v-9.28z" stroke="#000" stroke-width="2"/><path d="M720 490h80v80h-80v-80z" stroke="#fff" stroke-opacity="0" stroke-width="2" fill="#d86613"/><path d="M784.53 556.67H771.4c-.44 0-.78-.22-.95-.6l-18.6-38.87h-7.86c-.6 0-1.08-.48-1.08-1.07V504.4c0-.6.47-1.07 1.07-1.07h16.42c.43 0 .77.22.94.6l18.52 38.87h4.65c.6 0 1.07.48 1.07 1.07v11.73c0 .6-.47 1.07-1.07 1.07zm-12.46-2.14h11.4v-9.6h-4.27c-.43 0-.77-.2-.94-.58l-18.52-38.88h-14.68v9.6h7.47c.42 0 .76.2.98.58z" stroke="#fff" stroke-opacity="0" stroke-width="2" fill="#fff"/><path d="M749.3 556.67h-13.85c-.38 0-.7-.2-.92-.5-.2-.35-.2-.74-.05-1.06L749 524.8c.16-.4.54-.6.94-.6.43 0 .78.2.97.57l6.95 14.3c.16.28.16.6 0 .93l-7.58 15.98c-.14.43-.52.7-.97.7zm-12.15-2.15h11.5l7.05-14.9-5.74-11.93z" stroke="#fff" stroke-opacity="0" stroke-width="2" fill="#fff"/><use xlink:href="#n" transform="matrix(1,0,0,1,690,579) translate(14.875 14.4)"/><use xlink:href="#o" transform="matrix(1,0,0,1,690,579) translate(60.175 14.4)"/><path d="M558.5 530h143" stroke="#000" stroke-width="2" fill="none"/><path d="M543.23 530l14.27-4.64v9.28zM716.76 530l-14.26 4.64v-9.28z" stroke="#000" stroke-width="2"/><path d="M1105.97 501.73V490.7l-10.8-12.8-17.68 42.1 17.68 42.07 10.8-12.8v-11.1l-3.6 2.7v-5.4l3.6-2v-11.12l-3.6.08v-4.97l3.6.17v-10.85l-3.6-2.02v-3.8l3.6.77z" fill="#2e73b8"/><path d="M1075.9 572.5l19.28-10.4v-84.2l-19.27-10.4-21.8 53.34 21.8 51.66z" fill="#5294cf"/><path d="M1048.93 572.5h27v-105h-27l-13.97 53.34 13.97 51.66z" fill="#2e73b8"/><path d="M1048.9 572.5l-19.42-10.4-6.1-41.26 6.1-42.95 19.38-10.4.05 105z" fill="#205b99"/><path d="M1102.4 535.54l-7.24 3.8-19.26 4.45h-27l-18.84-4.47-.34-.1-.26-.07v-15.82l19.44 1.5h27l19.26-1.5 10.84-1h-3.6v-4.73h3.5l-10.74-.83-19.26-.67h-26.83l-19.6.5v-16h.25l19.35-4.96h26.83l19.26 4.97 7.23 4.13v-2.6l3.6-.34-10.84-8.18-19.26-6.73h-26.83l-19.6 6.98v-16l-9.47 12.8v11.1l2.75.34v2.7l-2.75 1.68v11.1h2.75v4.73l-2.75.08v11.04l2.75 1.68v2.78l-2.75.33v11.03l9.46 12.8v-16l19.44 6.48h27l19.26-6.48 10.84-7.83-3.6-.33v-2.36z" fill="#19486f"/><use xlink:href="#k" transform="matrix(1,0,0,1,1020,572.5) translate(10.024999999999999 14.4)"/><use xlink:href="#p" transform="matrix(1,0,0,1,1020,572.5) translate(-2.9250000000000043 36)"/><path d="M818.5 530h183" stroke="#000" stroke-width="2" fill="none"/><path d="M803.24 530l14.26-4.64v9.28zM1016.76 530l-14.26 4.64v-9.28z" stroke="#000" stroke-width="2"/><path d="M760 471.5V248.4h182.5" stroke="#000" stroke-width="2" fill="none"/><path d="M760 486.76l-4.64-14.26h9.28zM957.76 248.4l-14.26 4.64v-9.28z" stroke="#000" stroke-width="2"/><path d="M660 360h180v33.87H660z" stroke="#000" stroke-width="2" fill="#fff"/><use xlink:href="#q" transform="matrix(1,0,0,1,665,365) translate(8.127469135802514 16.17777777777777)"/><use xlink:href="#r" transform="matrix(1,0,0,1,665,365) translate(46.32500000000002 16.17777777777777)"/><use xlink:href="#s" transform="matrix(1,0,0,1,665,365) translate(111.42932098765431 16.17777777777777)"/><path d="M178.5 530H310v170h131.5" stroke="#000" stroke-width="2" fill="none"/><path d="M163.24 530l14.26-4.64v9.28zM456.76 700l-14.26 4.64v-9.28z" stroke="#000" stroke-width="2"/><path d="M120 493.66V248.4h822.5" stroke="#000" stroke-width="2" fill="none"/><path d="M120 508.93l-4.64-14.27h9.28zM957.76 248.4l-14.26 4.64v-9.28z" stroke="#000" stroke-width="2"/><path d="M340 259.07h160v74.8H340z" stroke="#000" stroke-width="2" fill="#fff"/><use xlink:href="#t" transform="matrix(1,0,0,1,345,264.0666666666666) translate(4.125 25.299999999999997)"/><use xlink:href="#u" transform="matrix(1,0,0,1,345,264.0666666666666) translate(39.075 46.9)"/><use xlink:href="#v" transform="matrix(1,0,0,1,345,264.0666666666666) translate(79.025 46.9)"/><path d="M260 449.38h180v74.8H260z" stroke="#000" stroke-width="2" fill="#fff"/><use xlink:href="#w" transform="matrix(1,0,0,1,265,454.3833333333334) translate(15.074999999999989 14.500000000000002)"/><use xlink:href="#x" transform="matrix(1,0,0,1,265,454.3833333333334) translate(49.07499999999999 14.500000000000002)"/><use xlink:href="#y" transform="matrix(1,0,0,1,265,454.3833333333334) translate(110.02499999999999 14.500000000000002)"/><use xlink:href="#z" transform="matrix(1,0,0,1,265,454.3833333333334) translate(14.099999999999994 36.1)"/><use xlink:href="#A" transform="matrix(1,0,0,1,265,454.3833333333334) translate(24.099999999999994 36.1)"/><use xlink:href="#B" transform="matrix(1,0,0,1,265,454.3833333333334) translate(97 36.1)"/><use xlink:href="#C" transform="matrix(1,0,0,1,265,454.3833333333334) translate(53.074999999999996 57.7)"/><path d="M983 620h160v53.2H983z" stroke="#000" stroke-width="2" fill="#fff"/><use xlink:href="#D" transform="matrix(1,0,0,1,988,625) translate(13.099999999999994 14.799999999999999)"/><use xlink:href="#E" transform="matrix(1,0,0,1,988,625) translate(86 14.799999999999999)"/><use xlink:href="#F" transform="matrix(1,0,0,1,988,625) translate(121.9 14.799999999999999)"/><use xlink:href="#G" transform="matrix(1,0,0,1,988,625) translate(3.549999999999997 36.4)"/><use xlink:href="#H" transform="matrix(1,0,0,1,988,625) translate(30.549999999999997 36.4)"/><use xlink:href="#I" transform="matrix(1,0,0,1,988,625) translate(63.55 36.4)"/><path d="M1369.5 313.4h80.47v80.47h-80.47V313.4z" stroke="#fff" stroke-opacity="0" stroke-width="2" fill="#d86613"/><path d="M1434.4 380.46h-13.2c-.44 0-.78-.22-.96-.6l-18.7-39.1h-7.9c-.6 0-1.08-.48-1.08-1.07v-11.82c0-.6.47-1.07 1.07-1.07h16.53c.43 0 .77.23.94.6l18.63 39.1h4.68c.6 0 1.08.5 1.08 1.08v11.8c0 .6-.47 1.08-1.07 1.08zm-12.52-2.15h11.46v-9.65h-4.3c-.43 0-.77-.2-.94-.6l-18.63-39.1h-14.77v9.66h7.5c.44 0 .8.23 1 .6z" stroke="#fff" stroke-opacity="0" stroke-width="2" fill="#fff"/><path d="M1398.97 380.46h-13.93c-.38 0-.7-.2-.93-.5-.2-.35-.2-.75-.03-1.07l14.6-30.5c.16-.4.54-.6.95-.6.42 0 .78.2.97.57l6.97 14.38c.17.3.17.62 0 .95l-7.62 16.07c-.14.42-.52.7-.98.7zm-12.22-2.16h11.56l7.1-15-5.76-12z" stroke="#fff" stroke-opacity="0" stroke-width="2" fill="#fff"/><path d="M1106.97 523.64h302.76V412.37" stroke="#000" stroke-width="2" fill="none"/><path d="M1107 524.64h-1.03v-2h1.03z"/><path d="M1409.73 397.1l4.64 14.27h-9.27z" stroke="#000" stroke-width="2"/><path d="M1409.73 312.4v-64H1078.5" stroke="#000" stroke-width="2" fill="none"/><path d="M1410.73 313.4h-2v-1.03h2z"/><path d="M1063.23 248.4l14.26-4.64v9.28z" stroke="#000" stroke-width="2"/><path d="M1180 457.52h180v58.53h-180z" stroke="#000" stroke-width="2" fill="#fff"/><g><use xlink:href="#J" transform="matrix(1,0,0,1,1185,462.5166666666667) translate(0.7126543209877099 16.41111111111111)"/><use xlink:href="#K" transform="matrix(1,0,0,1,1185,462.5166666666667) translate(41.43796296296299 16.41111111111111)"/><use xlink:href="#L" transform="matrix(1,0,0,1,1185,462.5166666666667) translate(102.04845679012344 16.41111111111111)"/><use xlink:href="#M" transform="matrix(1,0,0,1,1185,462.5166666666667) translate(1.9203703703704207 40.67777777777776)"/><use xlink:href="#N" transform="matrix(1,0,0,1,1185,462.5166666666667) translate(18.77222222222226 40.67777777777776)"/><use xlink:href="#O" transform="matrix(1,0,0,1,1185,462.5166666666667) translate(97.35802469135803 40.67777777777776)"/></g><path d="M1180 200h180v41.93h-180z" stroke="#000" stroke-width="2" fill="#fff"/><g><use xlink:href="#P" transform="matrix(1,0,0,1,1185,205) translate(23.855864197530906 20.044444444444444)"/><use xlink:href="#Q" transform="matrix(1,0,0,1,1185,205) translate(87.78055555555555 20.044444444444444)"/></g><path d="M820 539.65h180v53.2H820z" stroke="#000" stroke-width="2" fill="#fff"/><g><use xlink:href="#R" transform="matrix(1,0,0,1,825,544.65) translate(21.55000000000004 14.800000000000004)"/><use xlink:href="#S" transform="matrix(1,0,0,1,825,544.65) translate(87.55 14.800000000000004)"/><use xlink:href="#T" transform="matrix(1,0,0,1,825,544.65) translate(10.100000000000051 36.39999999999999)"/><use xlink:href="#U" transform="matrix(1,0,0,1,825,544.65) translate(82.00000000000001 36.39999999999999)"/></g><path d="M240 160h1320v660H240z" fill="#fff" fill-opacity="0"/><path d="M247 160h6m4 0h6m4 0h6m4 0h6m4 0h6m4 0h6m4 0h6m4 0h6m4 0h6m4 0h6m4 0h6m4 0h6m4 0h6m4 0h6m4 0h6m4 0h6m4 0h6m4 0h6m4 0h6m4 0h6m4 0h6m4 0h6m4 0h6m4 0h6m4 0h6m4 0h6m4 0h6m4 0h6m4 0h6m4 0h6m4 0h6m4 0h6m4 0h6m4 0h6m4 0h6m4 0h6m4 0h6m4 0h6m4 0h6m4 0h6m4 0h6m4 0h6m4 0h6m4 0h6m4 0h6m4 0h6m4 0h6m4 0h6m4 0h6m4 0h6m4 0h6m4 0h6m4 0h6m4 0h6m4 0h6m4 0h6m4 0h6m4 0h6m4 0h6m4 0h6m4 0h6m4 0h6m4 0h6m4 0h6m4 0h6m4 0h6m4 0h6m4 0h6m4 0h6m4 0h6m4 0h6m4 0h6m4 0h6m4 0h6m4 0h6m4 0h6m4 0h6m4 0h6m4 0h6m4 0h6m4 0h6m4 0h6m4 0h6m4 0h6m4 0h6m4 0h6m4 0h6m4 0h6m4 0h6m4 0h6m4 0h6m4 0h6m4 0h6m4 0h6m4 0h6m4 0h6m4 0h6m4 0h6m4 0h6m4 0h6m4 0h6m4 0h6m4 0h6m4 0h6m4 0h6m4 0h6m4 0h6m4 0h6m4 0h6m4 0h6m4 0h6m4 0h6m4 0h6m4 0h6m4 0h6m4 0h6m4 0h6m4 0h6m4 0h6m4 0h6m4 0h6m4 0h6m4 0h6m4 0h6m4 0h6m4 0h6m4 0h6m4 0h6m4 0h6m4 0h6m4 0h6m4 0h3v3m0 4v6m0 4v6m0 4v6m0 4v6m0 4v6m0 4v6m0 4v6m0 4v6m0 4v6m0 4v6m0 4v6m0 4v6m0 4v6m0 4v6m0 4v6m0 4v6m0 4v6m0 4v6m0 4v6m0 4v6m0 4v6m0 4v6m0 4v6m0 4v6m0 4v6m0 4v6m0 4v6m0 4v6m0 4v6m0 4v6m0 4v6m0 4v6m0 4v6m0 4v6m0 4v6m0 4v6m0 4v6m0 4v6m0 4v6m0 4v6m0 4v6m0 4v6m0 4v6m0 4v6m0 4v6m0 4v6m0 4v6m0 4v6m0 4v6m0 4v6m0 4v6m0 4v6m0 4v6m0 4v6m0 4v6m0 4v6m0 4v6m0 4v6m0 4v6m0 4v6m0 4v6m0 4v6m0 4v6m0 4v6m0 4v6m0 4v3h-3m-4 0h-6m-4 0h-6m-4 0h-6m-4 0h-6m-4 0h-6m-4 0h-6m-4 0h-6m-4 0h-6m-4 0h-6m-4 0h-6m-4 0h-6m-4 0h-6m-4 0h-6m-4 0h-6m-4 0h-6m-4 0h-6m-4 0h-6m-4 0h-6m-4 0h-6m-4 0h-6m-4 0h-6m-4 0h-6m-4 0h-6m-4 0h-6m-4 0h-6m-4 0h-6m-4 0h-6m-4 0h-6m-4 0h-6m-4 0h-6m-4 0h-6m-4 0h-6m-4 0h-6m-4 0h-6m-4 0h-6m-4 0h-6m-4 0h-6m-4 0h-6m-4 0h-6m-4 0h-6m-4 0h-6m-4 0h-6m-4 0h-6m-4 0h-6m-4 0h-6m-4 0h-6m-4 0h-6m-4 0h-6m-4 0h-6m-4 0h-6m-4 0h-6m-4 0h-6m-4 0h-6m-4 0h-6m-4 0h-6m-4 0h-6m-4 0h-6m-4 0h-6m-4 0h-6m-4 0h-6m-4 0h-6m-4 0h-6m-4 0h-6m-4 0h-6m-4 0h-6m-4 0h-6m-4 0h-6m-4 0h-6m-4 0h-6m-4 0h-6m-4 0h-6m-4 0h-6m-4 0h-6m-4 0h-6m-4 0h-6m-4 0h-6m-4 0h-6m-4 0h-6m-4 0h-6m-4 0h-6m-4 0h-6m-4 0h-6m-4 0h-6m-4 0h-6m-4 0h-6m-4 0h-6m-4 0h-6m-4 0h-6m-4 0h-6m-4 0h-6m-4 0h-6m-4 0h-6m-4 0h-6m-4 0h-6m-4 0h-6m-4 0h-6m-4 0h-6m-4 0h-6m-4 0h-6m-4 0h-6m-4 0h-6m-4 0h-6m-4 0h-6m-4 0h-6m-4 0h-6m-4 0h-6m-4 0h-6m-4 0h-6m-4 0h-6m-4 0h-6m-4 0h-6m-4 0h-6m-4 0h-6m-4 0h-6m-4 0h-6m-4 0h-6m-4 0h-6m-4 0h-6m-4 0h-6m-4 0h-6m-4 0h-6m-4 0h-6m-4 0h-6m-4 0h-6m-4 0h-6m-4 0h-6m-4 0h-6m-4 0h-6m-4 0h-6m-4 0h-6m-4 0h-6m-4 0h-3v-3m0-4v-6m0-4v-6m0-4v-6m0-4v-6m0-4v-6m0-4v-6m0-4v-6m0-4v-6m0-4v-6m0-4v-6m0-4v-6m0-4v-6m0-4v-6m0-4v-6m0-4v-6m0-4v-6m0-4v-6m0-4v-6m0-4v-6m0-4v-6m0-4v-6m0-4v-6m0-4v-6m0-4v-6m0-4v-6m0-4v-6m0-4v-6m0-4v-6m0-4v-6m0-4v-6m0-4v-6m0-4v-6m0-4v-6m0-4v-6m0-4v-6m0-4v-6m0-4v-6m0-4v-6m0-4v-6m0-4v-6m0-4v-6m0-4v-6m0-4v-6m0-4v-6m0-4v-6m0-4v-6m0-4v-6m0-4v-6m0-4v-6m0-4v-6m0-4v-6m0-4v-6m0-4v-6m0-4v-6m0-4v-6m0-4v-6m0-4v-6m0-4v-6m0-4v-6m0-4v-6m0-4v-6m0-4v-6m0-4v-6m0-4v-6m0-4v-6m0-4v-3h3" stroke="#147eba" stroke-width="2" fill="none"/><path d="M240 160h56v56h-56v-56z" stroke="#fff" stroke-opacity="0" fill="#147eba"/><path d="M283.84 189.36l-5.96-7.36 5.96-7.4h-26.17v-2.08c.98-.32 1.62-1.16 1.62-2.2-.1-1.15-1.03-2.02-2.17-2.14-1.3-.08-2.44.87-2.53 2.15 0 1.03.63 1.87 1.58 2.2v33.88h-4.02v1.6h9.44v-1.6h-3.93v-17.04zm-26.96-19.75c.4-.03.76.33.76.73 0 .44-.32.75-.73.75-.4.04-.75-.3-.75-.7v-.05c0-.4.32-.72.73-.72zm23.6 6.62l-4.66 5.78 4.66 5.73h-22.8v-11.5z" stroke="#fff" stroke-opacity="0" fill="#fff"/><g><use xlink:href="#V" transform="matrix(1,0,0,1,311,180) translate(0 14.4)"/><use xlink:href="#W" transform="matrix(1,0,0,1,311,180) translate(61.900000000000006 14.4)"/><use xlink:href="#X" transform="matrix(1,0,0,1,311,180) translate(72.85000000000001 14.4)"/></g><defs><path d="M199 0l-22-63H83L61 0H9l90-248h61L250 0h-51zm-33-102l-36-108c-10 38-24 72-36 108h72" id="Y"/><path d="M275 0h-61l-44-196L126 0H64L0-248h53L97-49l45-199h58l43 199 44-199h52" id="Z"/><path d="M169-182c-1-43-94-46-97-3 18 66 151 10 154 114 3 95-165 93-204 36-6-8-10-19-12-30l50-8c3 46 112 56 116 5-17-69-150-10-154-114-4-87 153-88 188-35 5 8 8 18 10 28" id="aa"/><g id="a"><use transform="matrix(0.05,0,0,0.05,0,0)" xlink:href="#Y"/><use transform="matrix(0.05,0,0,0.05,11.950000000000001,0)" xlink:href="#Z"/><use transform="matrix(0.05,0,0,0.05,28.899999999999995,0)" xlink:href="#aa"/></g><path d="M220-157c-53 9-28 100-34 157h-49v-107c1-27-5-49-29-50C55-147 81-57 75 0H25l-1-190h47c2 12-1 28 3 38 10-53 101-56 108 0 13-22 24-43 59-42 82 1 51 116 57 194h-49v-107c-1-25-5-48-29-50" id="ab"/><path d="M135-194c53 0 70 44 70 98 0 56-19 98-73 100-31 1-45-17-59-34 3 33 2 69 2 105H25l-1-265h48c2 10 0 23 3 31 11-24 29-35 60-35zM114-30c33 0 39-31 40-66 0-38-9-64-40-64-56 0-55 130 0 130" id="ac"/><path d="M25 0v-261h50V0H25" id="ad"/><path d="M25-224v-37h50v37H25zM25 0v-190h50V0H25" id="ae"/><path d="M121-226c-27-7-43 5-38 36h38v33H83V0H34v-157H6v-33h28c-9-59 32-81 87-68v32" id="af"/><path d="M123 10C108 53 80 86 19 72V37c35 8 53-11 59-39L3-190h52l48 148c12-52 28-100 44-148h51" id="ag"/><path d="M35-132v-50h50v50H35zM35 0v-49h50V0H35" id="ah"/><g id="b"><use transform="matrix(0.05,0,0,0.05,0,0)" xlink:href="#Y"/><use transform="matrix(0.05,0,0,0.05,12.950000000000001,0)" xlink:href="#ab"/><use transform="matrix(0.05,0,0,0.05,28.950000000000003,0)" xlink:href="#ac"/><use transform="matrix(0.05,0,0,0.05,39.900000000000006,0)" xlink:href="#ad"/><use transform="matrix(0.05,0,0,0.05,44.900000000000006,0)" xlink:href="#ae"/><use transform="matrix(0.05,0,0,0.05,49.900000000000006,0)" xlink:href="#af"/><use transform="matrix(0.05,0,0,0.05,55.85,0)" xlink:href="#ag"/><use transform="matrix(0.05,0,0,0.05,65.85000000000001,0)" xlink:href="#ah"/></g><path d="M185-189c-5-48-123-54-124 2 14 75 158 14 163 119 3 78-121 87-175 55-17-10-28-26-33-46l33-7c5 56 141 63 141-1 0-78-155-14-162-118-5-82 145-84 179-34 5 7 8 16 11 25" id="ai"/><path d="M100-194c63 0 86 42 84 106H49c0 40 14 67 53 68 26 1 43-12 49-29l28 8c-11 28-37 45-77 45C44 4 14-33 15-96c1-61 26-98 85-98zm52 81c6-60-76-77-97-28-3 7-6 17-6 28h103" id="aj"/><path d="M114-163C36-179 61-72 57 0H25l-1-190h30c1 12-1 29 2 39 6-27 23-49 58-41v29" id="ak"/><path d="M108 0H70L1-190h34L89-25l56-165h34" id="al"/><g id="c"><use transform="matrix(0.05,0,0,0.05,0,0)" xlink:href="#ai"/><use transform="matrix(0.05,0,0,0.05,12,0)" xlink:href="#aj"/><use transform="matrix(0.05,0,0,0.05,22,0)" xlink:href="#ak"/><use transform="matrix(0.05,0,0,0.05,27.950000000000003,0)" xlink:href="#al"/><use transform="matrix(0.05,0,0,0.05,36.95,0)" xlink:href="#aj"/></g><path d="M59-47c-2 24 18 29 38 22v24C64 9 27 4 27-40v-127H5v-23h24l9-43h21v43h35v23H59v120" id="am"/><path d="M106-169C34-169 62-67 57 0H25v-261h32l-1 103c12-21 28-36 61-36 89 0 53 116 60 194h-32v-121c2-32-8-49-39-48" id="an"/><g id="d"><use transform="matrix(0.05,0,0,0.05,0,0)" xlink:href="#am"/><use transform="matrix(0.05,0,0,0.05,5,0)" xlink:href="#an"/><use transform="matrix(0.05,0,0,0.05,15,0)" xlink:href="#aj"/></g><path d="M101-234c-31-9-42 10-38 44h38v23H63V0H32v-167H5v-23h27c-7-52 17-82 69-68v24" id="ao"/><path d="M100-194c62-1 85 37 85 99 1 63-27 99-86 99S16-35 15-95c0-66 28-99 85-99zM99-20c44 1 53-31 53-75 0-43-8-75-51-75s-53 32-53 75 10 74 51 75" id="ap"/><path d="M117-194c89-4 53 116 60 194h-32v-121c0-31-8-49-39-48C34-167 62-67 57 0H25l-1-190h30c1 10-1 24 2 32 11-22 29-35 61-36" id="aq"/><path d="M85-194c31 0 48 13 60 33l-1-100h32l1 261h-30c-2-10 0-23-3-31C134-8 116 4 85 4 32 4 16-35 15-94c0-66 23-100 70-100zm9 24c-40 0-46 34-46 75 0 40 6 74 45 74 42 0 51-32 51-76 0-42-9-74-50-73" id="ar"/><g id="e"><use transform="matrix(0.05,0,0,0.05,0,0)" xlink:href="#ao"/><use transform="matrix(0.05,0,0,0.05,5,0)" xlink:href="#ak"/><use transform="matrix(0.05,0,0,0.05,10.95,0)" xlink:href="#ap"/><use transform="matrix(0.05,0,0,0.05,20.95,0)" xlink:href="#aq"/><use transform="matrix(0.05,0,0,0.05,30.950000000000003,0)" xlink:href="#am"/><use transform="matrix(0.05,0,0,0.05,35.95,0)" xlink:href="#aj"/><use transform="matrix(0.05,0,0,0.05,45.95,0)" xlink:href="#aq"/><use transform="matrix(0.05,0,0,0.05,55.95,0)" xlink:href="#ar"/></g><path d="M141-36C126-15 110 5 73 4 37 3 15-17 15-53c-1-64 63-63 125-63 3-35-9-54-41-54-24 1-41 7-42 31l-33-3c5-37 33-52 76-52 45 0 72 20 72 64v82c-1 20 7 32 28 27v20c-31 9-61-2-59-35zM48-53c0 20 12 33 32 33 41-3 63-29 60-74-43 2-92-5-92 41" id="as"/><path d="M115-194c55 1 70 41 70 98S169 2 115 4C84 4 66-9 55-30l1 105H24l-1-265h31l2 30c10-21 28-34 59-34zm-8 174c40 0 45-34 45-75s-6-73-45-74c-42 0-51 32-51 76 0 43 10 73 51 73" id="at"/><g id="f"><use transform="matrix(0.05,0,0,0.05,0,0)" xlink:href="#as"/><use transform="matrix(0.05,0,0,0.05,10,0)" xlink:href="#at"/><use transform="matrix(0.05,0,0,0.05,20,0)" xlink:href="#at"/></g><path d="M232-93c-1 65-40 97-104 97C67 4 28-28 28-90v-158h33c8 89-33 224 67 224 102 0 64-133 71-224h33v155" id="au"/><path d="M135-143c-3-34-86-38-87 0 15 53 115 12 119 90S17 21 10-45l28-5c4 36 97 45 98 0-10-56-113-15-118-90-4-57 82-63 122-42 12 7 21 19 24 35" id="av"/><g id="g"><use transform="matrix(0.05,0,0,0.05,0,0)" xlink:href="#au"/><use transform="matrix(0.05,0,0,0.05,12.950000000000001,0)" xlink:href="#av"/><use transform="matrix(0.05,0,0,0.05,21.950000000000003,0)" xlink:href="#aj"/><use transform="matrix(0.05,0,0,0.05,31.950000000000003,0)" xlink:href="#ak"/><use transform="matrix(0.05,0,0,0.05,37.900000000000006,0)" xlink:href="#av"/></g><path d="M205 0l-28-72H64L36 0H1l101-248h38L239 0h-34zm-38-99l-47-123c-12 45-31 82-46 123h93" id="aw"/><path d="M210-169c-67 3-38 105-44 169h-31v-121c0-29-5-50-35-48C34-165 62-65 56 0H25l-1-190h30c1 10-1 24 2 32 10-44 99-50 107 0 11-21 27-35 58-36 85-2 47 119 55 194h-31v-121c0-29-5-49-35-48" id="ax"/><path d="M9 0v-24l116-142H16v-24h144v24L44-24h123V0H9" id="ay"/><g id="h"><use transform="matrix(0.05,0,0,0.05,0,0)" xlink:href="#aw"/><use transform="matrix(0.05,0,0,0.05,12,0)" xlink:href="#ax"/><use transform="matrix(0.05,0,0,0.05,26.950000000000003,0)" xlink:href="#as"/><use transform="matrix(0.05,0,0,0.05,36.95,0)" xlink:href="#ay"/><use transform="matrix(0.05,0,0,0.05,45.95,0)" xlink:href="#ap"/><use transform="matrix(0.05,0,0,0.05,55.95,0)" xlink:href="#aq"/></g><path d="M126-127c33 6 58 20 58 59 0 88-139 92-164 29-3-8-5-16-6-25l32-3c6 27 21 44 54 44 32 0 52-15 52-46 0-38-36-46-79-43v-28c39 1 72-4 72-42 0-27-17-43-46-43-28 0-47 15-49 41l-32-3c6-42 35-63 81-64 48-1 79 21 79 65 0 36-21 52-52 59" id="az"/><g id="i"><use transform="matrix(0.05,0,0,0.05,0,0)" xlink:href="#ai"/><use transform="matrix(0.05,0,0,0.05,12,0)" xlink:href="#az"/></g><path d="M24-231v-30h32v30H24zM24 0v-190h32V0H24" id="aA"/><path d="M96-169c-40 0-48 33-48 73s9 75 48 75c24 0 41-14 43-38l32 2c-6 37-31 61-74 61-59 0-76-41-82-99-10-93 101-131 147-64 4 7 5 14 7 22l-32 3c-4-21-16-35-41-35" id="aB"/><g id="j"><use transform="matrix(0.05,0,0,0.05,0,0)" xlink:href="#ai"/><use transform="matrix(0.05,0,0,0.05,12,0)" xlink:href="#aj"/><use transform="matrix(0.05,0,0,0.05,22,0)" xlink:href="#ak"/><use transform="matrix(0.05,0,0,0.05,27.950000000000003,0)" xlink:href="#al"/><use transform="matrix(0.05,0,0,0.05,36.95,0)" xlink:href="#aA"/><use transform="matrix(0.05,0,0,0.05,40.900000000000006,0)" xlink:href="#aB"/><use transform="matrix(0.05,0,0,0.05,49.900000000000006,0)" xlink:href="#aj"/></g><g id="k"><use transform="matrix(0.05,0,0,0.05,0,0)" xlink:href="#aw"/><use transform="matrix(0.05,0,0,0.05,12,0)" xlink:href="#ax"/><use transform="matrix(0.05,0,0,0.05,26.950000000000003,0)" xlink:href="#as"/><use transform="matrix(0.05,0,0,0.05,36.95,0)" xlink:href="#ay"/><use transform="matrix(0.05,0,0,0.05,45.95,0)" xlink:href="#ap"/><use transform="matrix(0.05,0,0,0.05,55.95,0)" xlink:href="#aq"/></g><path d="M30-248c87 1 191-15 191 75 0 78-77 80-158 76V0H30v-248zm33 125c57 0 124 11 124-50 0-59-68-47-124-48v98" id="aC"/><path d="M33 0v-248h34V0H33" id="aD"/><g id="l"><use transform="matrix(0.05,0,0,0.05,0,0)" xlink:href="#aw"/><use transform="matrix(0.05,0,0,0.05,12,0)" xlink:href="#aC"/><use transform="matrix(0.05,0,0,0.05,24,0)" xlink:href="#aD"/></g><path d="M143 4C61 4 22-44 18-125c-5-107 100-154 193-111 17 8 29 25 37 43l-32 9c-13-25-37-40-76-40-61 0-88 39-88 99 0 61 29 100 91 101 35 0 62-11 79-27v-45h-74v-28h105v86C228-13 192 4 143 4" id="aE"/><path d="M206 0h-36l-40-164L89 0H53L-1-190h32L70-26l43-164h34l41 164 42-164h31" id="aF"/><path d="M179-190L93 31C79 59 56 82 12 73V49c39 6 53-20 64-50L1-190h34L92-34l54-156h33" id="aG"/><g id="m"><use transform="matrix(0.05,0,0,0.05,0,0)" xlink:href="#aE"/><use transform="matrix(0.05,0,0,0.05,14,0)" xlink:href="#as"/><use transform="matrix(0.05,0,0,0.05,24,0)" xlink:href="#am"/><use transform="matrix(0.05,0,0,0.05,29,0)" xlink:href="#aj"/><use transform="matrix(0.05,0,0,0.05,39,0)" xlink:href="#aF"/><use transform="matrix(0.05,0,0,0.05,51.95,0)" xlink:href="#as"/><use transform="matrix(0.05,0,0,0.05,61.95,0)" xlink:href="#aG"/></g><path d="M266 0h-40l-56-210L115 0H75L2-248h35L96-30l15-64 43-154h32l59 218 59-218h35" id="aH"/><g id="n"><use transform="matrix(0.05,0,0,0.05,0,0)" xlink:href="#aw"/><use transform="matrix(0.05,0,0,0.05,11.35,0)" xlink:href="#aH"/><use transform="matrix(0.05,0,0,0.05,28.299999999999997,0)" xlink:href="#ai"/></g><path d="M30 0v-248h33v221h125V0H30" id="aI"/><path d="M115-194c53 0 69 39 70 98 0 66-23 100-70 100C84 3 66-7 56-30L54 0H23l1-261h32v101c10-23 28-34 59-34zm-8 174c40 0 45-34 45-75 0-40-5-75-45-74-42 0-51 32-51 76 0 43 10 73 51 73" id="aJ"/><g id="o"><use transform="matrix(0.05,0,0,0.05,0,0)" xlink:href="#aI"/><use transform="matrix(0.05,0,0,0.05,10,0)" xlink:href="#as"/><use transform="matrix(0.05,0,0,0.05,20,0)" xlink:href="#ax"/><use transform="matrix(0.05,0,0,0.05,34.95,0)" xlink:href="#aJ"/><use transform="matrix(0.05,0,0,0.05,44.95,0)" xlink:href="#ar"/><use transform="matrix(0.05,0,0,0.05,54.95,0)" xlink:href="#as"/></g><path d="M30-248c118-7 216 8 213 122C240-48 200 0 122 0H30v-248zM63-27c89 8 146-16 146-99s-60-101-146-95v194" id="aK"/><path d="M160-131c35 5 61 23 61 61C221 17 115-2 30 0v-248c76 3 177-17 177 60 0 33-19 50-47 57zm-97-11c50-1 110 9 110-42 0-47-63-36-110-37v79zm0 115c55-2 124 14 124-45 0-56-70-42-124-44v89" id="aL"/><g id="p"><use transform="matrix(0.05,0,0,0.05,0,0)" xlink:href="#aK"/><use transform="matrix(0.05,0,0,0.05,12.950000000000001,0)" xlink:href="#aG"/><use transform="matrix(0.05,0,0,0.05,21.950000000000003,0)" xlink:href="#aq"/><use transform="matrix(0.05,0,0,0.05,31.950000000000003,0)" xlink:href="#as"/><use transform="matrix(0.05,0,0,0.05,41.95,0)" xlink:href="#ax"/><use transform="matrix(0.05,0,0,0.05,56.900000000000006,0)" xlink:href="#ap"/><use transform="matrix(0.05,0,0,0.05,66.9,0)" xlink:href="#aK"/><use transform="matrix(0.05,0,0,0.05,79.85000000000001,0)" xlink:href="#aL"/></g><g id="q"><use transform="matrix(0.05617283950617281,0,0,0.05617283950617281,0,0)" xlink:href="#aE"/><use transform="matrix(0.05617283950617281,0,0,0.05617283950617281,15.728395061728387,0)" xlink:href="#aj"/><use transform="matrix(0.05617283950617281,0,0,0.05617283950617281,26.962962962962948,0)" xlink:href="#am"/></g><path d="M177-190C167-65 218 103 67 71c-23-6-38-20-44-43l32-5c15 47 100 32 89-28v-30C133-14 115 1 83 1 29 1 15-40 15-95c0-56 16-97 71-98 29-1 48 16 59 35 1-10 0-23 2-32h30zM94-22c36 0 50-32 50-73 0-42-14-75-50-75-39 0-46 34-46 75s6 73 46 73" id="aM"/><g id="r"><use transform="matrix(0.05617283950617281,0,0,0.05617283950617281,0,0)" xlink:href="#av"/><use transform="matrix(0.05617283950617281,0,0,0.05617283950617281,10.111111111111105,0)" xlink:href="#aA"/><use transform="matrix(0.05617283950617281,0,0,0.05617283950617281,14.548765432098756,0)" xlink:href="#aM"/><use transform="matrix(0.05617283950617281,0,0,0.05617283950617281,25.783333333333317,0)" xlink:href="#aq"/><use transform="matrix(0.05617283950617281,0,0,0.05617283950617281,37.01790123456788,0)" xlink:href="#aj"/><use transform="matrix(0.05617283950617281,0,0,0.05617283950617281,48.25246913580244,0)" xlink:href="#ar"/></g><path d="M233-177c-1 41-23 64-60 70L243 0h-38l-65-103H63V0H30v-248c88 3 205-21 203 71zM63-129c60-2 137 13 137-47 0-61-80-42-137-45v92" id="aN"/><g id="s"><use transform="matrix(0.05617283950617281,0,0,0.05617283950617281,0,0)" xlink:href="#au"/><use transform="matrix(0.05617283950617281,0,0,0.05617283950617281,14.548765432098756,0)" xlink:href="#aN"/><use transform="matrix(0.05617283950617281,0,0,0.05617283950617281,29.097530864197513,0)" xlink:href="#aI"/><use transform="matrix(0.05617283950617281,0,0,0.05617283950617281,40.33209876543207,0)" xlink:href="#av"/></g><path d="M24 0v-261h32V0H24" id="aO"/><path d="M0 4l72-265h28L28 4H0" id="aP"/><g id="t"><use transform="matrix(0.05,0,0,0.05,0,0)" xlink:href="#au"/><use transform="matrix(0.05,0,0,0.05,12.950000000000001,0)" xlink:href="#at"/><use transform="matrix(0.05,0,0,0.05,22.950000000000003,0)" xlink:href="#aO"/><use transform="matrix(0.05,0,0,0.05,26.900000000000002,0)" xlink:href="#ap"/><use transform="matrix(0.05,0,0,0.05,36.900000000000006,0)" xlink:href="#as"/><use transform="matrix(0.05,0,0,0.05,46.900000000000006,0)" xlink:href="#ar"/><use transform="matrix(0.05,0,0,0.05,56.900000000000006,0)" xlink:href="#aP"/><use transform="matrix(0.05,0,0,0.05,61.900000000000006,0)" xlink:href="#aK"/><use transform="matrix(0.05,0,0,0.05,74.85000000000001,0)" xlink:href="#ap"/><use transform="matrix(0.05,0,0,0.05,84.85000000000001,0)" xlink:href="#aF"/><use transform="matrix(0.05,0,0,0.05,97.80000000000001,0)" xlink:href="#aq"/><use transform="matrix(0.05,0,0,0.05,107.80000000000001,0)" xlink:href="#aO"/><use transform="matrix(0.05,0,0,0.05,111.75,0)" xlink:href="#ap"/><use transform="matrix(0.05,0,0,0.05,121.75,0)" xlink:href="#as"/><use transform="matrix(0.05,0,0,0.05,131.75,0)" xlink:href="#ar"/></g><path d="M84 4C-5 8 30-112 23-190h32v120c0 31 7 50 39 49 72-2 45-101 50-169h31l1 190h-30c-1-10 1-25-2-33-11 22-28 36-60 37" id="aQ"/><g id="u"><use transform="matrix(0.05,0,0,0.05,0,0)" xlink:href="#aQ"/><use transform="matrix(0.05,0,0,0.05,10,0)" xlink:href="#av"/><use transform="matrix(0.05,0,0,0.05,19,0)" xlink:href="#aj"/><use transform="matrix(0.05,0,0,0.05,29,0)" xlink:href="#ak"/></g><g id="v"><use transform="matrix(0.05,0,0,0.05,0,0)" xlink:href="#ao"/><use transform="matrix(0.05,0,0,0.05,5,0)" xlink:href="#aA"/><use transform="matrix(0.05,0,0,0.05,8.95,0)" xlink:href="#aO"/><use transform="matrix(0.05,0,0,0.05,12.899999999999999,0)" xlink:href="#aj"/><use transform="matrix(0.05,0,0,0.05,22.9,0)" xlink:href="#av"/></g><g id="w"><use transform="matrix(0.05,0,0,0.05,0,0)" xlink:href="#aE"/><use transform="matrix(0.05,0,0,0.05,14,0)" xlink:href="#aj"/><use transform="matrix(0.05,0,0,0.05,24,0)" xlink:href="#am"/></g><g id="x"><use transform="matrix(0.05,0,0,0.05,0,0)" xlink:href="#ai"/><use transform="matrix(0.05,0,0,0.05,12,0)" xlink:href="#aA"/><use transform="matrix(0.05,0,0,0.05,15.949999999999998,0)" xlink:href="#aM"/><use transform="matrix(0.05,0,0,0.05,25.950000000000003,0)" xlink:href="#aq"/><use transform="matrix(0.05,0,0,0.05,35.95,0)" xlink:href="#aj"/><use transform="matrix(0.05,0,0,0.05,45.95,0)" xlink:href="#ar"/></g><g id="y"><use transform="matrix(0.05,0,0,0.05,0,0)" xlink:href="#au"/><use transform="matrix(0.05,0,0,0.05,12.950000000000001,0)" xlink:href="#aN"/><use transform="matrix(0.05,0,0,0.05,25.900000000000002,0)" xlink:href="#aI"/><use transform="matrix(0.05,0,0,0.05,35.900000000000006,0)" xlink:href="#av"/></g><use transform="matrix(0.05,0,0,0.05,0,0)" xlink:href="#aP" id="z"/><g id="A"><use transform="matrix(0.05,0,0,0.05,0,0)" xlink:href="#aN"/><use transform="matrix(0.05,0,0,0.05,12.950000000000001,0)" xlink:href="#as"/><use transform="matrix(0.05,0,0,0.05,22.950000000000003,0)" xlink:href="#aq"/><use transform="matrix(0.05,0,0,0.05,32.95,0)" xlink:href="#ar"/><use transform="matrix(0.05,0,0,0.05,42.95,0)" xlink:href="#ap"/><use transform="matrix(0.05,0,0,0.05,52.95,0)" xlink:href="#ax"/></g><g id="B"><use transform="matrix(0.05,0,0,0.05,0,0)" xlink:href="#ar"/><use transform="matrix(0.05,0,0,0.05,10,0)" xlink:href="#ap"/><use transform="matrix(0.05,0,0,0.05,20,0)" xlink:href="#ax"/><use transform="matrix(0.05,0,0,0.05,34.95,0)" xlink:href="#as"/><use transform="matrix(0.05,0,0,0.05,44.95,0)" xlink:href="#aA"/><use transform="matrix(0.05,0,0,0.05,48.900000000000006,0)" xlink:href="#aq"/></g><g id="C"><use transform="matrix(0.05,0,0,0.05,0,0)" xlink:href="#ak"/><use transform="matrix(0.05,0,0,0.05,5.95,0)" xlink:href="#aj"/><use transform="matrix(0.05,0,0,0.05,15.949999999999998,0)" xlink:href="#av"/><use transform="matrix(0.05,0,0,0.05,24.95,0)" xlink:href="#ap"/><use transform="matrix(0.05,0,0,0.05,34.95,0)" xlink:href="#aO"/><use transform="matrix(0.05,0,0,0.05,38.900000000000006,0)" xlink:href="#al"/><use transform="matrix(0.05,0,0,0.05,47.900000000000006,0)" xlink:href="#aj"/><use transform="matrix(0.05,0,0,0.05,57.900000000000006,0)" xlink:href="#ak"/></g><g id="D"><use transform="matrix(0.05,0,0,0.05,0,0)" xlink:href="#aN"/><use transform="matrix(0.05,0,0,0.05,12.950000000000001,0)" xlink:href="#as"/><use transform="matrix(0.05,0,0,0.05,22.950000000000003,0)" xlink:href="#aq"/><use transform="matrix(0.05,0,0,0.05,32.95,0)" xlink:href="#ar"/><use transform="matrix(0.05,0,0,0.05,42.95,0)" xlink:href="#ap"/><use transform="matrix(0.05,0,0,0.05,52.95,0)" xlink:href="#ax"/></g><g id="E"><use transform="matrix(0.05,0,0,0.05,0,0)" xlink:href="#au"/><use transform="matrix(0.05,0,0,0.05,12.950000000000001,0)" xlink:href="#aN"/><use transform="matrix(0.05,0,0,0.05,25.900000000000002,0)" xlink:href="#aD"/></g><g id="F"><use transform="matrix(0.05,0,0,0.05,0,0)" xlink:href="#am"/><use transform="matrix(0.05,0,0,0.05,5,0)" xlink:href="#ap"/></g><g id="G"><use transform="matrix(0.05,0,0,0.05,0,0)" xlink:href="#ai"/><use transform="matrix(0.05,0,0,0.05,12,0)" xlink:href="#az"/></g><path d="M143 0L79-87 56-68V0H24v-261h32v163l83-92h37l-77 82L181 0h-38" id="aR"/><g id="H"><use transform="matrix(0.05,0,0,0.05,0,0)" xlink:href="#aR"/><use transform="matrix(0.05,0,0,0.05,9,0)" xlink:href="#aj"/><use transform="matrix(0.05,0,0,0.05,19,0)" xlink:href="#aG"/></g><path d="M33 0v-38h34V0H33" id="aS"/><g id="I"><use transform="matrix(0.05,0,0,0.05,0,0)" xlink:href="#ax"/><use transform="matrix(0.05,0,0,0.05,14.950000000000001,0)" xlink:href="#as"/><use transform="matrix(0.05,0,0,0.05,24.950000000000003,0)" xlink:href="#at"/><use transform="matrix(0.05,0,0,0.05,34.95,0)" xlink:href="#at"/><use transform="matrix(0.05,0,0,0.05,44.95,0)" xlink:href="#aA"/><use transform="matrix(0.05,0,0,0.05,48.900000000000006,0)" xlink:href="#aq"/><use transform="matrix(0.05,0,0,0.05,58.900000000000006,0)" xlink:href="#aM"/><use transform="matrix(0.05,0,0,0.05,68.9,0)" xlink:href="#av"/><use transform="matrix(0.05,0,0,0.05,77.9,0)" xlink:href="#aS"/></g><path d="M127-220V0H93v-220H8v-28h204v28h-85" id="aT"/><g id="J"><use transform="matrix(0.05617283950617281,0,0,0.05617283950617281,0,0)" xlink:href="#aT"/><use transform="matrix(0.05617283950617281,0,0,0.05617283950617281,12.301851851851845,0)" xlink:href="#aT"/><use transform="matrix(0.05617283950617281,0,0,0.05617283950617281,24.60370370370369,0)" xlink:href="#aI"/></g><g id="K"><use transform="matrix(0.05617283950617281,0,0,0.05617283950617281,0,0)" xlink:href="#ar"/><use transform="matrix(0.05617283950617281,0,0,0.05617283950617281,11.234567901234561,0)" xlink:href="#aj"/><use transform="matrix(0.05617283950617281,0,0,0.05617283950617281,22.469135802469122,0)" xlink:href="#aO"/><use transform="matrix(0.05617283950617281,0,0,0.05617283950617281,26.906790123456773,0)" xlink:href="#aj"/><use transform="matrix(0.05617283950617281,0,0,0.05617283950617281,38.141358024691336,0)" xlink:href="#am"/><use transform="matrix(0.05617283950617281,0,0,0.05617283950617281,43.75864197530861,0)" xlink:href="#aj"/></g><g id="L"><use transform="matrix(0.05617283950617281,0,0,0.05617283950617281,0,0)" xlink:href="#am"/><use transform="matrix(0.05617283950617281,0,0,0.05617283950617281,5.6172839506172805,0)" xlink:href="#ak"/><use transform="matrix(0.05617283950617281,0,0,0.05617283950617281,12.301851851851843,0)" xlink:href="#aA"/><use transform="matrix(0.05617283950617281,0,0,0.05617283950617281,16.739506172839494,0)" xlink:href="#aM"/><use transform="matrix(0.05617283950617281,0,0,0.05617283950617281,27.974074074074053,0)" xlink:href="#aM"/><use transform="matrix(0.05617283950617281,0,0,0.05617283950617281,39.208641975308616,0)" xlink:href="#aj"/><use transform="matrix(0.05617283950617281,0,0,0.05617283950617281,50.44320987654318,0)" xlink:href="#ak"/><use transform="matrix(0.05617283950617281,0,0,0.05617283950617281,57.127777777777744,0)" xlink:href="#av"/></g><use transform="matrix(0.05617283950617281,0,0,0.05617283950617281,0,0)" xlink:href="#as" id="M"/><g id="N"><use transform="matrix(0.05617283950617281,0,0,0.05617283950617281,0,0)" xlink:href="#aI"/><use transform="matrix(0.05617283950617281,0,0,0.05617283950617281,11.234567901234561,0)" xlink:href="#as"/><use transform="matrix(0.05617283950617281,0,0,0.05617283950617281,22.469135802469122,0)" xlink:href="#ax"/><use transform="matrix(0.05617283950617281,0,0,0.05617283950617281,39.26481481481479,0)" xlink:href="#aJ"/><use transform="matrix(0.05617283950617281,0,0,0.05617283950617281,50.499382716049354,0)" xlink:href="#ar"/><use transform="matrix(0.05617283950617281,0,0,0.05617283950617281,61.73395061728392,0)" xlink:href="#as"/></g><g id="O"><use transform="matrix(0.05617283950617281,0,0,0.05617283950617281,0,0)" xlink:href="#ao"/><use transform="matrix(0.05617283950617281,0,0,0.05617283950617281,5.6172839506172805,0)" xlink:href="#aQ"/><use transform="matrix(0.05617283950617281,0,0,0.05617283950617281,16.85185185185184,0)" xlink:href="#aq"/><use transform="matrix(0.05617283950617281,0,0,0.05617283950617281,28.086419753086403,0)" xlink:href="#aB"/><use transform="matrix(0.05617283950617281,0,0,0.05617283950617281,38.19753086419751,0)" xlink:href="#am"/><use transform="matrix(0.05617283950617281,0,0,0.05617283950617281,43.81481481481479,0)" xlink:href="#aA"/><use transform="matrix(0.05617283950617281,0,0,0.05617283950617281,48.25246913580244,0)" xlink:href="#ap"/><use transform="matrix(0.05617283950617281,0,0,0.05617283950617281,59.487037037037005,0)" xlink:href="#aq"/></g><g id="P"><use transform="matrix(0.05617283950617281,0,0,0.05617283950617281,0,0)" xlink:href="#aK"/><use transform="matrix(0.05617283950617281,0,0,0.05617283950617281,14.548765432098756,0)" xlink:href="#aj"/><use transform="matrix(0.05617283950617281,0,0,0.05617283950617281,25.783333333333317,0)" xlink:href="#aO"/><use transform="matrix(0.05617283950617281,0,0,0.05617283950617281,30.22098765432097,0)" xlink:href="#aj"/><use transform="matrix(0.05617283950617281,0,0,0.05617283950617281,41.45555555555553,0)" xlink:href="#am"/><use transform="matrix(0.05617283950617281,0,0,0.05617283950617281,47.072839506172805,0)" xlink:href="#aj"/></g><path d="M140-251c81 0 123 46 123 126C263-46 219 4 140 4 59 4 17-45 17-125s42-126 123-126zm0 227c63 0 89-41 89-101s-29-99-89-99c-61 0-89 39-89 99S79-25 140-24" id="aU"/><path d="M24-231v-30h32v30H24zM-9 49c24 4 33-6 33-30v-209h32V24c2 40-23 58-65 49V49" id="aV"/><g id="Q"><use transform="matrix(0.05617283950617281,0,0,0.05617283950617281,0,0)" xlink:href="#aU"/><use transform="matrix(0.05617283950617281,0,0,0.05617283950617281,15.728395061728387,0)" xlink:href="#aJ"/><use transform="matrix(0.05617283950617281,0,0,0.05617283950617281,26.962962962962948,0)" xlink:href="#aV"/><use transform="matrix(0.05617283950617281,0,0,0.05617283950617281,31.4006172839506,0)" xlink:href="#aj"/><use transform="matrix(0.05617283950617281,0,0,0.05617283950617281,42.63518518518516,0)" xlink:href="#aB"/><use transform="matrix(0.05617283950617281,0,0,0.05617283950617281,52.746296296296265,0)" xlink:href="#am"/></g><g id="R"><use transform="matrix(0.04999999999999997,0,0,0.04999999999999997,0,0)" xlink:href="#aE"/><use transform="matrix(0.04999999999999997,0,0,0.04999999999999997,13.999999999999991,0)" xlink:href="#aj"/><use transform="matrix(0.04999999999999997,0,0,0.04999999999999997,23.999999999999986,0)" xlink:href="#am"/><use transform="matrix(0.04999999999999997,0,0,0.04999999999999997,28.999999999999982,0)" xlink:href="#aP"/><use transform="matrix(0.04999999999999997,0,0,0.04999999999999997,33.99999999999998,0)" xlink:href="#aC"/><use transform="matrix(0.04999999999999997,0,0,0.04999999999999997,45.99999999999997,0)" xlink:href="#aQ"/><use transform="matrix(0.04999999999999997,0,0,0.04999999999999997,55.999999999999964,0)" xlink:href="#am"/></g><g id="S"><use transform="matrix(0.04999999999999997,0,0,0.04999999999999997,0,0)" xlink:href="#ak"/><use transform="matrix(0.04999999999999997,0,0,0.04999999999999997,5.949999999999997,0)" xlink:href="#as"/><use transform="matrix(0.04999999999999997,0,0,0.04999999999999997,15.94999999999999,0)" xlink:href="#aq"/><use transform="matrix(0.04999999999999997,0,0,0.04999999999999997,25.949999999999985,0)" xlink:href="#ar"/><use transform="matrix(0.04999999999999997,0,0,0.04999999999999997,35.949999999999974,0)" xlink:href="#ap"/><use transform="matrix(0.04999999999999997,0,0,0.04999999999999997,45.94999999999997,0)" xlink:href="#ax"/></g><path d="M194 0L95-120 63-95V0H30v-248h33v124l119-124h40L117-140 236 0h-42" id="aW"/><g id="T"><use transform="matrix(0.04999999999999997,0,0,0.04999999999999997,0,0)" xlink:href="#au"/><use transform="matrix(0.04999999999999997,0,0,0.04999999999999997,12.949999999999992,0)" xlink:href="#aN"/><use transform="matrix(0.04999999999999997,0,0,0.04999999999999997,25.899999999999984,0)" xlink:href="#aD"/><use transform="matrix(0.04999999999999997,0,0,0.04999999999999997,30.89999999999998,0)" xlink:href="#aP"/><use transform="matrix(0.04999999999999997,0,0,0.04999999999999997,35.89999999999998,0)" xlink:href="#aW"/><use transform="matrix(0.04999999999999997,0,0,0.04999999999999997,47.89999999999997,0)" xlink:href="#aj"/><use transform="matrix(0.04999999999999997,0,0,0.04999999999999997,57.89999999999996,0)" xlink:href="#aG"/></g><path d="M240 0l2-218c-23 76-54 145-80 218h-23L58-218 59 0H30v-248h44l77 211c21-75 51-140 76-211h43V0h-30" id="aX"/><g id="U"><use transform="matrix(0.04999999999999997,0,0,0.04999999999999997,0,0)" xlink:href="#aX"/><use transform="matrix(0.04999999999999997,0,0,0.04999999999999997,14.94999999999999,0)" xlink:href="#as"/><use transform="matrix(0.04999999999999997,0,0,0.04999999999999997,24.94999999999998,0)" xlink:href="#at"/><use transform="matrix(0.04999999999999997,0,0,0.04999999999999997,34.949999999999974,0)" xlink:href="#at"/><use transform="matrix(0.04999999999999997,0,0,0.04999999999999997,44.94999999999997,0)" xlink:href="#aA"/><use transform="matrix(0.04999999999999997,0,0,0.04999999999999997,48.89999999999996,0)" xlink:href="#aq"/><use transform="matrix(0.04999999999999997,0,0,0.04999999999999997,58.89999999999995,0)" xlink:href="#aM"/><use transform="matrix(0.04999999999999997,0,0,0.04999999999999997,68.89999999999995,0)" xlink:href="#av"/></g><path fill="#147eba" d="M233-177c-1 41-23 64-60 70L243 0h-38l-65-103H63V0H30v-248c88 3 205-21 203 71zM63-129c60-2 137 13 137-47 0-61-80-42-137-45v92" id="aY"/><path fill="#147eba" d="M100-194c63 0 86 42 84 106H49c0 40 14 67 53 68 26 1 43-12 49-29l28 8c-11 28-37 45-77 45C44 4 14-33 15-96c1-61 26-98 85-98zm52 81c6-60-76-77-97-28-3 7-6 17-6 28h103" id="aZ"/><path fill="#147eba" d="M177-190C167-65 218 103 67 71c-23-6-38-20-44-43l32-5c15 47 100 32 89-28v-30C133-14 115 1 83 1 29 1 15-40 15-95c0-56 16-97 71-98 29-1 48 16 59 35 1-10 0-23 2-32h30zM94-22c36 0 50-32 50-73 0-42-14-75-50-75-39 0-46 34-46 75s6 73 46 73" id="ba"/><path fill="#147eba" d="M24-231v-30h32v30H24zM24 0v-190h32V0H24" id="bb"/><path fill="#147eba" d="M100-194c62-1 85 37 85 99 1 63-27 99-86 99S16-35 15-95c0-66 28-99 85-99zM99-20c44 1 53-31 53-75 0-43-8-75-51-75s-53 32-53 75 10 74 51 75" id="bc"/><path fill="#147eba" d="M117-194c89-4 53 116 60 194h-32v-121c0-31-8-49-39-48C34-167 62-67 57 0H25l-1-190h30c1 10-1 24 2 32 11-22 29-35 61-36" id="bd"/><g id="V"><use transform="matrix(0.05,0,0,0.05,0,0)" xlink:href="#aY"/><use transform="matrix(0.05,0,0,0.05,12.950000000000001,0)" xlink:href="#aZ"/><use transform="matrix(0.05,0,0,0.05,22.950000000000003,0)" xlink:href="#ba"/><use transform="matrix(0.05,0,0,0.05,32.95,0)" xlink:href="#bb"/><use transform="matrix(0.05,0,0,0.05,36.900000000000006,0)" xlink:href="#bc"/><use transform="matrix(0.05,0,0,0.05,46.900000000000006,0)" xlink:href="#bd"/></g><path fill="#147eba" d="M16-82v-28h88v28H16" id="be"/><use transform="matrix(0.05,0,0,0.05,0,0)" xlink:href="#be" id="W"/><path fill="#147eba" d="M240 0l2-218c-23 76-54 145-80 218h-23L58-218 59 0H30v-248h44l77 211c21-75 51-140 76-211h43V0h-30" id="bf"/><path fill="#147eba" d="M84 4C-5 8 30-112 23-190h32v120c0 31 7 50 39 49 72-2 45-101 50-169h31l1 190h-30c-1-10 1-25-2-33-11 22-28 36-60 37" id="bg"/><path fill="#147eba" d="M210-169c-67 3-38 105-44 169h-31v-121c0-29-5-50-35-48C34-165 62-65 56 0H25l-1-190h30c1 10-1 24 2 32 10-44 99-50 107 0 11-21 27-35 58-36 85-2 47 119 55 194h-31v-121c0-29-5-49-35-48" id="bh"/><path fill="#147eba" d="M115-194c53 0 69 39 70 98 0 66-23 100-70 100C84 3 66-7 56-30L54 0H23l1-261h32v101c10-23 28-34 59-34zm-8 174c40 0 45-34 45-75 0-40-5-75-45-74-42 0-51 32-51 76 0 43 10 73 51 73" id="bi"/><path fill="#147eba" d="M141-36C126-15 110 5 73 4 37 3 15-17 15-53c-1-64 63-63 125-63 3-35-9-54-41-54-24 1-41 7-42 31l-33-3c5-37 33-52 76-52 45 0 72 20 72 64v82c-1 20 7 32 28 27v20c-31 9-61-2-59-35zM48-53c0 20 12 33 32 33 41-3 63-29 60-74-43 2-92-5-92 41" id="bj"/><path fill="#147eba" d="M87 75C49 33 22-17 22-94c0-76 28-126 65-167h31c-38 41-64 92-64 168S80 34 118 75H87" id="bk"/><path fill="#147eba" d="M115-194c55 1 70 41 70 98S169 2 115 4C84 4 66-9 55-30l1 105H24l-1-265h31l2 30c10-21 28-34 59-34zm-8 174c40 0 45-34 45-75s-6-73-45-74c-42 0-51 32-51 76 0 43 10 73 51 73" id="bl"/><path fill="#147eba" d="M135-143c-3-34-86-38-87 0 15 53 115 12 119 90S17 21 10-45l28-5c4 36 97 45 98 0-10-56-113-15-118-90-4-57 82-63 122-42 12 7 21 19 24 35" id="bm"/><path fill="#147eba" d="M59-47c-2 24 18 29 38 22v24C64 9 27 4 27-40v-127H5v-23h24l9-43h21v43h35v23H59v120" id="bn"/><path fill="#147eba" d="M106-169C34-169 62-67 57 0H25v-261h32l-1 103c12-21 28-36 61-36 89 0 53 116 60 194h-32v-121c2-32-8-49-39-48" id="bo"/><path fill="#147eba" d="M27 0v-27h64v-190l-56 39v-29l58-41h29v221h61V0H27" id="bp"/><path fill="#147eba" d="M33-261c38 41 65 92 65 168S71 34 33 75H2C39 34 66-17 66-93S39-220 2-261h31" id="bq"/><g id="X"><use transform="matrix(0.05,0,0,0.05,0,0)" xlink:href="#bf"/><use transform="matrix(0.05,0,0,0.05,14.950000000000001,0)" xlink:href="#bg"/><use transform="matrix(0.05,0,0,0.05,24.950000000000003,0)" xlink:href="#bh"/><use transform="matrix(0.05,0,0,0.05,39.900000000000006,0)" xlink:href="#bi"/><use transform="matrix(0.05,0,0,0.05,49.900000000000006,0)" xlink:href="#bj"/><use transform="matrix(0.05,0,0,0.05,59.900000000000006,0)" xlink:href="#bb"/><use transform="matrix(0.05,0,0,0.05,63.85,0)" xlink:href="#bk"/><use transform="matrix(0.05,0,0,0.05,69.80000000000001,0)" xlink:href="#bj"/><use transform="matrix(0.05,0,0,0.05,79.80000000000001,0)" xlink:href="#bl"/><use transform="matrix(0.05,0,0,0.05,89.80000000000001,0)" xlink:href="#be"/><use transform="matrix(0.05,0,0,0.05,95.75000000000001,0)" xlink:href="#bm"/><use transform="matrix(0.05,0,0,0.05,104.75,0)" xlink:href="#bc"/><use transform="matrix(0.05,0,0,0.05,114.75,0)" xlink:href="#bg"/><use transform="matrix(0.05,0,0,0.05,124.75,0)" xlink:href="#bn"/><use transform="matrix(0.05,0,0,0.05,129.75,0)" xlink:href="#bo"/><use transform="matrix(0.05,0,0,0.05,139.75,0)" xlink:href="#be"/><use transform="matrix(0.05,0,0,0.05,145.7,0)" xlink:href="#bp"/><use transform="matrix(0.05,0,0,0.05,155.7,0)" xlink:href="#bq"/></g></defs></g></svg>